<mxfile host="app.diagrams.net" agent="Mozilla/5.0 (Windows NT 10.0; Win64; x64) AppleWebKit/537.36 (KHTML, like Gecko) Chrome/129.0.0.0 Safari/537.36" version="24.8.0">
  <diagram name="PÃ¡gina-1" id="9a275r4qv3ik05h2t5Ud">
    <mxGraphModel dx="934" dy="535" grid="1" gridSize="10" guides="1" tooltips="1" connect="1" arrows="1" fold="1" page="1" pageScale="1" pageWidth="827" pageHeight="1169" math="0" shadow="0">
      <root>
        <mxCell id="0" />
        <mxCell id="1" parent="0" />
        <mxCell id="twbi2xWV4dYVUT5mhdAC-1" value="&lt;font style=&quot;font-size: 14px;&quot;&gt;USUARIOS&lt;/font&gt;" style="rounded=0;whiteSpace=wrap;html=1;" parent="1" vertex="1">
          <mxGeometry x="24" y="220" width="160" height="40" as="geometry" />
        </mxCell>
        <mxCell id="fl2NYGMa0zHFTZ681w7x-1" value="&lt;font style=&quot;font-size: 14px;&quot;&gt;CURSOS&lt;/font&gt;" style="rounded=0;whiteSpace=wrap;html=1;" parent="1" vertex="1">
          <mxGeometry x="644" y="220" width="160" height="40" as="geometry" />
        </mxCell>
        <mxCell id="fl2NYGMa0zHFTZ681w7x-2" value="&lt;font style=&quot;font-size: 14px;&quot;&gt;INCRIPCIONES&lt;/font&gt;" style="rounded=0;whiteSpace=wrap;html=1;" parent="1" vertex="1">
          <mxGeometry x="334" y="220" width="160" height="40" as="geometry" />
        </mxCell>
        <mxCell id="fl2NYGMa0zHFTZ681w7x-3" value="&lt;font style=&quot;font-size: 14px;&quot;&gt;CATEGORIAS&lt;/font&gt;" style="rounded=0;whiteSpace=wrap;html=1;" parent="1" vertex="1">
          <mxGeometry x="644" y="410" width="160" height="40" as="geometry" />
        </mxCell>
        <mxCell id="fl2NYGMa0zHFTZ681w7x-4" value="&lt;font style=&quot;font-size: 14px;&quot;&gt;ROLES&lt;/font&gt;" style="rounded=0;whiteSpace=wrap;html=1;" parent="1" vertex="1">
          <mxGeometry x="24" y="410" width="160" height="40" as="geometry" />
        </mxCell>
        <mxCell id="Gb4qwzsyq6n0iIfKKvHN-1" value="PK_ROL" style="ellipse;whiteSpace=wrap;html=1;" vertex="1" parent="1">
          <mxGeometry x="24" y="460" width="160" height="20" as="geometry" />
        </mxCell>
        <mxCell id="Gb4qwzsyq6n0iIfKKvHN-2" value="PK_USUARIO" style="ellipse;whiteSpace=wrap;html=1;" vertex="1" parent="1">
          <mxGeometry x="24" y="190" width="160" height="20" as="geometry" />
        </mxCell>
        <mxCell id="Gb4qwzsyq6n0iIfKKvHN-3" value="PK_INCRIPCION" style="ellipse;whiteSpace=wrap;html=1;" vertex="1" parent="1">
          <mxGeometry x="334" y="270" width="160" height="20" as="geometry" />
        </mxCell>
        <mxCell id="Gb4qwzsyq6n0iIfKKvHN-4" value="PK_CURSO" style="ellipse;whiteSpace=wrap;html=1;" vertex="1" parent="1">
          <mxGeometry x="644" y="190" width="160" height="20" as="geometry" />
        </mxCell>
        <mxCell id="Gb4qwzsyq6n0iIfKKvHN-5" value="PK_CATEGORIA" style="ellipse;whiteSpace=wrap;html=1;" vertex="1" parent="1">
          <mxGeometry x="644" y="460" width="160" height="20" as="geometry" />
        </mxCell>
        <mxCell id="Gb4qwzsyq6n0iIfKKvHN-6" value="Pertenece" style="rhombus;whiteSpace=wrap;html=1;" vertex="1" parent="1">
          <mxGeometry x="69" y="300" width="70" height="70" as="geometry" />
        </mxCell>
        <mxCell id="Gb4qwzsyq6n0iIfKKvHN-10" value="" style="endArrow=none;html=1;rounded=0;exitX=0.5;exitY=0;exitDx=0;exitDy=0;entryX=0.5;entryY=1;entryDx=0;entryDy=0;" edge="1" parent="1" source="fl2NYGMa0zHFTZ681w7x-4" target="Gb4qwzsyq6n0iIfKKvHN-6">
          <mxGeometry width="50" height="50" relative="1" as="geometry">
            <mxPoint x="294" y="410" as="sourcePoint" />
            <mxPoint x="344" y="360" as="targetPoint" />
          </mxGeometry>
        </mxCell>
        <mxCell id="Gb4qwzsyq6n0iIfKKvHN-11" value="" style="endArrow=none;html=1;rounded=0;exitX=0.5;exitY=0;exitDx=0;exitDy=0;entryX=0.5;entryY=1;entryDx=0;entryDy=0;" edge="1" parent="1" source="Gb4qwzsyq6n0iIfKKvHN-6" target="twbi2xWV4dYVUT5mhdAC-1">
          <mxGeometry width="50" height="50" relative="1" as="geometry">
            <mxPoint x="304" y="420" as="sourcePoint" />
            <mxPoint x="354" y="370" as="targetPoint" />
          </mxGeometry>
        </mxCell>
        <mxCell id="Gb4qwzsyq6n0iIfKKvHN-12" value="" style="endArrow=none;html=1;rounded=0;exitX=1;exitY=0.5;exitDx=0;exitDy=0;entryX=0;entryY=0.5;entryDx=0;entryDy=0;" edge="1" parent="1" source="twbi2xWV4dYVUT5mhdAC-1" target="Gb4qwzsyq6n0iIfKKvHN-18">
          <mxGeometry width="50" height="50" relative="1" as="geometry">
            <mxPoint x="314" y="430" as="sourcePoint" />
            <mxPoint x="224" y="240" as="targetPoint" />
          </mxGeometry>
        </mxCell>
        <mxCell id="Gb4qwzsyq6n0iIfKKvHN-13" value="" style="endArrow=none;html=1;rounded=0;exitX=1;exitY=0.5;exitDx=0;exitDy=0;entryX=0;entryY=0.5;entryDx=0;entryDy=0;" edge="1" parent="1" source="Gb4qwzsyq6n0iIfKKvHN-18" target="fl2NYGMa0zHFTZ681w7x-2">
          <mxGeometry width="50" height="50" relative="1" as="geometry">
            <mxPoint x="264.0000000000002" y="240" as="sourcePoint" />
            <mxPoint x="374" y="390" as="targetPoint" />
          </mxGeometry>
        </mxCell>
        <mxCell id="Gb4qwzsyq6n0iIfKKvHN-14" value="" style="endArrow=none;html=1;rounded=0;exitX=1;exitY=0.5;exitDx=0;exitDy=0;entryX=0;entryY=0.5;entryDx=0;entryDy=0;" edge="1" parent="1" source="fl2NYGMa0zHFTZ681w7x-2" target="Gb4qwzsyq6n0iIfKKvHN-19">
          <mxGeometry width="50" height="50" relative="1" as="geometry">
            <mxPoint x="334" y="450" as="sourcePoint" />
            <mxPoint x="534" y="240" as="targetPoint" />
          </mxGeometry>
        </mxCell>
        <mxCell id="Gb4qwzsyq6n0iIfKKvHN-15" value="" style="endArrow=none;html=1;rounded=0;entryX=0;entryY=0.5;entryDx=0;entryDy=0;exitX=1;exitY=0.5;exitDx=0;exitDy=0;" edge="1" parent="1" source="Gb4qwzsyq6n0iIfKKvHN-19" target="fl2NYGMa0zHFTZ681w7x-1">
          <mxGeometry width="50" height="50" relative="1" as="geometry">
            <mxPoint x="614" y="260" as="sourcePoint" />
            <mxPoint x="394" y="410" as="targetPoint" />
          </mxGeometry>
        </mxCell>
        <mxCell id="Gb4qwzsyq6n0iIfKKvHN-16" value="" style="endArrow=none;html=1;rounded=0;exitX=0.5;exitY=1;exitDx=0;exitDy=0;entryX=0.5;entryY=0;entryDx=0;entryDy=0;" edge="1" parent="1" source="fl2NYGMa0zHFTZ681w7x-1" target="Gb4qwzsyq6n0iIfKKvHN-20">
          <mxGeometry width="50" height="50" relative="1" as="geometry">
            <mxPoint x="354" y="470" as="sourcePoint" />
            <mxPoint x="663.9999999999998" y="300" as="targetPoint" />
          </mxGeometry>
        </mxCell>
        <mxCell id="Gb4qwzsyq6n0iIfKKvHN-17" value="" style="endArrow=none;html=1;rounded=0;exitX=0.5;exitY=0;exitDx=0;exitDy=0;entryX=0.5;entryY=1;entryDx=0;entryDy=0;" edge="1" parent="1" source="fl2NYGMa0zHFTZ681w7x-3" target="Gb4qwzsyq6n0iIfKKvHN-20">
          <mxGeometry width="50" height="50" relative="1" as="geometry">
            <mxPoint x="224" y="420" as="sourcePoint" />
            <mxPoint x="604" y="290" as="targetPoint" />
          </mxGeometry>
        </mxCell>
        <mxCell id="Gb4qwzsyq6n0iIfKKvHN-18" value="Realiza" style="rhombus;whiteSpace=wrap;html=1;" vertex="1" parent="1">
          <mxGeometry x="224" y="205" width="70" height="70" as="geometry" />
        </mxCell>
        <mxCell id="Gb4qwzsyq6n0iIfKKvHN-19" value="Registra" style="rhombus;whiteSpace=wrap;html=1;" vertex="1" parent="1">
          <mxGeometry x="534" y="205" width="70" height="70" as="geometry" />
        </mxCell>
        <mxCell id="Gb4qwzsyq6n0iIfKKvHN-20" value="Pertenece" style="rhombus;whiteSpace=wrap;html=1;" vertex="1" parent="1">
          <mxGeometry x="689" y="300" width="70" height="70" as="geometry" />
        </mxCell>
        <mxCell id="Gb4qwzsyq6n0iIfKKvHN-22" value="NOMBRE" style="ellipse;whiteSpace=wrap;html=1;" vertex="1" parent="1">
          <mxGeometry x="24" y="490" width="160" height="20" as="geometry" />
        </mxCell>
        <mxCell id="Gb4qwzsyq6n0iIfKKvHN-23" value="DESCRIPCION" style="ellipse;whiteSpace=wrap;html=1;" vertex="1" parent="1">
          <mxGeometry x="24" y="520" width="160" height="20" as="geometry" />
        </mxCell>
        <mxCell id="Gb4qwzsyq6n0iIfKKvHN-24" value="NOMBRE" style="ellipse;whiteSpace=wrap;html=1;" vertex="1" parent="1">
          <mxGeometry x="644" y="490" width="160" height="20" as="geometry" />
        </mxCell>
        <mxCell id="Gb4qwzsyq6n0iIfKKvHN-25" value="ESTADO" style="ellipse;whiteSpace=wrap;html=1;" vertex="1" parent="1">
          <mxGeometry x="334" y="330" width="160" height="20" as="geometry" />
        </mxCell>
        <mxCell id="Gb4qwzsyq6n0iIfKKvHN-26" value="FECHA" style="ellipse;whiteSpace=wrap;html=1;" vertex="1" parent="1">
          <mxGeometry x="334" y="300" width="160" height="20" as="geometry" />
        </mxCell>
        <mxCell id="Gb4qwzsyq6n0iIfKKvHN-27" value="FK_USUARIO" style="ellipse;whiteSpace=wrap;html=1;" vertex="1" parent="1">
          <mxGeometry x="334" y="360" width="160" height="20" as="geometry" />
        </mxCell>
        <mxCell id="Gb4qwzsyq6n0iIfKKvHN-28" value="FK_CURSO" style="ellipse;whiteSpace=wrap;html=1;" vertex="1" parent="1">
          <mxGeometry x="334" y="390" width="160" height="20" as="geometry" />
        </mxCell>
        <mxCell id="Gb4qwzsyq6n0iIfKKvHN-29" value="NOMBRE" style="ellipse;whiteSpace=wrap;html=1;" vertex="1" parent="1">
          <mxGeometry x="644" y="160" width="160" height="20" as="geometry" />
        </mxCell>
        <mxCell id="Gb4qwzsyq6n0iIfKKvHN-30" value="DESCRIPCION" style="ellipse;whiteSpace=wrap;html=1;" vertex="1" parent="1">
          <mxGeometry x="644" y="130" width="160" height="20" as="geometry" />
        </mxCell>
        <mxCell id="Gb4qwzsyq6n0iIfKKvHN-31" value="DURACION_HS" style="ellipse;whiteSpace=wrap;html=1;" vertex="1" parent="1">
          <mxGeometry x="644" y="100" width="160" height="20" as="geometry" />
        </mxCell>
        <mxCell id="Gb4qwzsyq6n0iIfKKvHN-32" value="COSTO" style="ellipse;whiteSpace=wrap;html=1;" vertex="1" parent="1">
          <mxGeometry x="644" y="70" width="160" height="20" as="geometry" />
        </mxCell>
        <mxCell id="Gb4qwzsyq6n0iIfKKvHN-33" value="FK_CATEGORIA" style="ellipse;whiteSpace=wrap;html=1;" vertex="1" parent="1">
          <mxGeometry x="644" y="40" width="160" height="20" as="geometry" />
        </mxCell>
        <mxCell id="Gb4qwzsyq6n0iIfKKvHN-34" value="NOMBRE" style="ellipse;whiteSpace=wrap;html=1;" vertex="1" parent="1">
          <mxGeometry x="24" y="160" width="160" height="20" as="geometry" />
        </mxCell>
        <mxCell id="Gb4qwzsyq6n0iIfKKvHN-35" value="EMAIL" style="ellipse;whiteSpace=wrap;html=1;" vertex="1" parent="1">
          <mxGeometry x="24" y="130" width="160" height="20" as="geometry" />
        </mxCell>
        <mxCell id="Gb4qwzsyq6n0iIfKKvHN-36" value="CONTRASEÃA" style="ellipse;whiteSpace=wrap;html=1;" vertex="1" parent="1">
          <mxGeometry x="24" y="100" width="160" height="20" as="geometry" />
        </mxCell>
        <mxCell id="Gb4qwzsyq6n0iIfKKvHN-37" value="FECHA_REGISTRO" style="ellipse;whiteSpace=wrap;html=1;" vertex="1" parent="1">
          <mxGeometry x="24" y="70" width="160" height="20" as="geometry" />
        </mxCell>
        <mxCell id="Gb4qwzsyq6n0iIfKKvHN-38" value="FK_ROL" style="ellipse;whiteSpace=wrap;html=1;" vertex="1" parent="1">
          <mxGeometry x="24" y="40" width="160" height="20" as="geometry" />
        </mxCell>
      </root>
    </mxGraphModel>
  </diagram>
</mxfile>
